<svg width="96" height="26" viewBox="0 0 96 26" fill="none" xmlns="http://www.w3.org/2000/svg">
<g clip-path="url(#clip0_2466_1693)">
<path d="M0.814209 8.24265V17.7573C0.814209 18.3628 1.13679 18.9235 1.66292 19.2265L9.90225 23.9813C10.4284 24.2843 11.0735 24.2843 11.5997 23.9813L19.839 19.2265C20.3651 18.9235 20.6877 18.3628 20.6877 17.7573V8.24265C20.6877 7.63716 20.3651 7.07652 19.839 6.77349L11.5997 2.01873C11.0735 1.7157 10.4284 1.7157 9.90225 2.01873L1.66292 6.77349C1.14197 7.07652 0.814209 7.63716 0.814209 8.24265Z" fill="#213147"/>
<path d="M12.5525 14.8438L11.376 18.065C11.3415 18.1541 11.3415 18.2536 11.376 18.3427L13.396 23.887L15.734 22.5368L12.9297 14.8438C12.8653 14.6649 12.6169 14.6649 12.5525 14.8438Z" fill="#12AAFF"/>
<path d="M14.9049 9.42372C14.8405 9.24489 14.5921 9.24489 14.5277 9.42372L13.3512 12.6449C13.3167 12.7341 13.3167 12.8335 13.3512 12.9227L16.6615 22.0009L18.9995 20.6508L14.9049 9.42372Z" fill="#12AAFF"/>
<path d="M10.751 2.37064C10.8108 2.37064 10.8654 2.38559 10.9195 2.41549L19.8338 7.56241C19.9379 7.62221 20.0023 7.73089 20.0023 7.85049V18.1443C20.0023 18.2634 19.9379 18.3726 19.8338 18.4324L10.9195 23.5845C10.87 23.6144 10.8102 23.6294 10.751 23.6294C10.6917 23.6294 10.6365 23.6144 10.5825 23.5845L1.67271 18.4376C1.56863 18.3778 1.50423 18.2691 1.50423 18.1495V7.85049C1.50423 7.73147 1.56863 7.62221 1.67271 7.56241L10.5871 2.41549C10.6365 2.38559 10.6963 2.37064 10.751 2.37064ZM10.751 0.866989C10.4336 0.866989 10.1156 0.951516 9.83268 1.11539L0.918292 6.26231C0.352481 6.58949 0 7.19556 0 7.85049V18.1443C0 18.7993 0.352481 19.4099 0.918292 19.7377L9.83268 24.8846C10.1156 25.0485 10.433 25.133 10.751 25.133C11.069 25.133 11.3864 25.0485 11.6693 24.8846L20.5837 19.7377C21.1546 19.4099 21.5019 18.8044 21.5019 18.1443V7.85049C21.5019 7.19556 21.1495 6.58489 20.5837 6.25714L11.6739 1.11539C11.3858 0.951516 11.0684 0.866989 10.7504 0.866989H10.751Z" fill="#9DCCED"/>
<path d="M4.85942 22.0113L5.67824 19.7676L7.32622 21.1373L5.78749 22.5472L4.85942 22.0113Z" fill="#213147"/>
<path d="M10.0012 7.11563H7.74309C7.57462 7.11563 7.42051 7.21971 7.36589 7.37841L2.52142 20.6606L4.85942 22.0107L10.1949 7.38359C10.2398 7.25478 10.1455 7.11563 10.0012 7.11563Z" fill="white"/>
<path d="M13.9572 7.11562H11.6992C11.5307 7.11562 11.3766 7.21969 11.322 7.3784L5.78807 22.5466L8.12606 23.8967L14.1458 7.38875C14.1953 7.25477 14.0964 7.11562 13.9572 7.11562Z" fill="white"/>
<path d="M31.1253 9.88028C31.3484 9.88028 31.5422 9.92513 31.6963 10.0194C31.8504 10.1137 32.0039 10.2926 32.1529 10.5605L35.1009 15.911C35.1308 15.9708 35.1354 16.0202 35.1211 16.0599C35.1061 16.0996 35.0613 16.1197 34.9923 16.1197H33.8606C33.7612 16.1197 33.6922 16.08 33.6571 16.0053L33.0269 14.8587H28.8425L28.2273 16.0053C28.1876 16.0846 28.118 16.1197 28.0237 16.1197H26.8674C26.788 16.1197 26.7432 16.0996 26.7282 16.0599C26.7133 16.0202 26.7184 15.9708 26.7483 15.911L29.6717 10.5605C29.8206 10.2926 29.9644 10.1137 30.1087 10.0194C30.2525 9.92513 30.4163 9.88028 30.6049 9.88028H31.1259H31.1253ZM29.3928 13.8162H32.4599L31.0454 11.2057C31.0207 11.166 30.9908 11.1413 30.9459 11.1413H30.8913C30.8516 11.1413 30.8171 11.1614 30.7918 11.2057L29.3922 13.8162H29.3928Z" fill="white"/>
<path d="M41.5784 9.88028C42.2633 9.88028 42.7497 10.0344 43.0476 10.342C43.3454 10.6496 43.4944 11.1062 43.4944 11.7117V12.2177C43.4944 12.7289 43.3903 13.1308 43.1816 13.4287C42.9728 13.7265 42.6353 13.9151 42.1638 13.9997L43.6876 15.8857C43.7175 15.9156 43.7273 15.9599 43.7123 16.0197C43.7025 16.0795 43.6525 16.1088 43.5686 16.1088H42.422C42.3426 16.1088 42.2932 16.099 42.2633 16.0841C42.2334 16.0639 42.2035 16.0346 42.1741 15.9949L40.7648 14.1434H37.8863V15.9156C37.8863 16.0444 37.8219 16.1094 37.6925 16.1094H36.7294C36.5902 16.1094 36.5258 16.045 36.5258 15.9156V10.1482C36.5258 9.96941 36.6149 9.88028 36.7938 9.88028H41.5784ZM37.8909 13.0618H41.3007C41.6037 13.0618 41.8171 12.9974 41.9413 12.868C42.0655 12.7392 42.1299 12.5403 42.1299 12.2723V11.9003C42.1299 11.6323 42.0655 11.434 41.9413 11.3046C41.8171 11.1758 41.6037 11.1108 41.3007 11.1108H38.0047C37.9254 11.1108 37.8903 11.1453 37.8903 11.2201V13.0612L37.8909 13.0618Z" fill="white"/>
<path d="M50.9442 9.88028C51.5549 9.88028 51.9913 10.0045 52.2495 10.2477C52.5077 10.4909 52.6365 10.8584 52.6365 11.3494V11.7761C52.6365 12.2723 52.4479 12.6495 52.0655 12.9077C52.4726 13.1458 52.6807 13.5281 52.6807 14.0543V14.5706C52.6807 14.8087 52.656 15.022 52.6014 15.2112C52.5468 15.3998 52.4622 15.5637 52.3386 15.6977C52.2144 15.8316 52.0557 15.9357 51.8521 16.0053C51.6486 16.0749 51.4008 16.1145 51.1029 16.1145H45.8117C45.6328 16.1145 45.5437 16.0254 45.5437 15.8466V10.1488C45.5437 9.96998 45.6328 9.88085 45.8117 9.88085H50.9436L50.9442 9.88028ZM46.9088 12.4713H50.5618C50.8597 12.4713 51.0581 12.4264 51.1673 12.3373C51.2766 12.2482 51.326 12.1188 51.326 11.9451V11.6421C51.326 11.4587 51.2766 11.3247 51.1719 11.235C51.0678 11.1505 50.8988 11.1062 50.6705 11.1062H47.0272C46.9479 11.1062 46.9128 11.1459 46.9128 11.2206V12.4713H46.9076H46.9088ZM46.9088 13.4442V14.7696C46.9088 14.8489 46.9485 14.884 47.0232 14.884H50.6762C50.9143 14.884 51.0834 14.8392 51.1823 14.7552C51.2812 14.6713 51.3364 14.5321 51.3364 14.3435V14.006C51.3364 13.8226 51.2817 13.6834 51.1725 13.5891C51.0632 13.4948 50.8597 13.4453 50.5618 13.4453H46.9088V13.4442Z" fill="white"/>
<path d="M56.002 9.88028C56.1308 9.88028 56.1958 9.94468 56.1958 10.0741V15.9162C56.1958 16.045 56.1314 16.1099 56.002 16.1099H55.0388C54.8997 16.1099 54.8353 16.0455 54.8353 15.9162V10.0792C54.8353 9.95043 54.9049 9.88545 55.0388 9.88545L56.002 9.88028Z" fill="white"/>
<path d="M65.3333 9.88028C65.4724 9.88028 65.5368 9.94468 65.5368 10.0741V10.9475C65.5368 11.0867 65.4672 11.1511 65.3333 11.1511H62.5387V15.9162C62.5387 16.045 62.4743 16.1099 62.3449 16.1099H61.372C61.2432 16.1099 61.1782 16.0455 61.1782 15.9162V11.1511H58.3837C58.2445 11.1511 58.1801 11.0815 58.1801 10.9475V10.0741C58.1801 9.94526 58.2497 9.88028 58.3837 9.88028H65.3327H65.3333Z" fill="white"/>
<path d="M72.376 9.88028C73.0608 9.88028 73.5473 10.0344 73.8451 10.342C74.143 10.6496 74.2919 11.1062 74.2919 11.7117V12.2177C74.2919 12.7289 74.1878 13.1308 73.9791 13.4287C73.7704 13.7265 73.4329 13.9151 72.9613 13.9997L74.4851 15.8857C74.515 15.9156 74.5248 15.9599 74.5099 16.0197C74.5001 16.0795 74.4501 16.1088 74.3661 16.1088H73.2195C73.1402 16.1088 73.0907 16.099 73.0608 16.0841C73.0309 16.0639 73.001 16.0346 72.9717 15.9949L71.5623 14.1434H68.6838V15.9156C68.6838 16.0444 68.6194 16.1094 68.4901 16.1094H67.5269C67.3878 16.1094 67.3234 16.045 67.3234 15.9156V10.1482C67.3234 9.96941 67.4125 9.88028 67.5913 9.88028H72.376ZM68.693 13.0618H72.1029C72.4059 13.0618 72.6192 12.9974 72.7434 12.868C72.8676 12.7392 72.932 12.5403 72.932 12.2723V11.9003C72.932 11.6323 72.8676 11.434 72.7434 11.3046C72.6192 11.1758 72.4059 11.1108 72.1029 11.1108H68.8069C68.7275 11.1108 68.6925 11.1453 68.6925 11.2201V13.0612L68.693 13.0618Z" fill="white"/>
<path d="M77.3843 9.88028C77.5131 9.88028 77.5781 9.94468 77.5781 10.0741V13.6276C77.5781 13.8657 77.5982 14.0646 77.6379 14.2182C77.6776 14.3769 77.742 14.5011 77.8317 14.5902C77.9208 14.6845 78.0404 14.7489 78.194 14.784C78.3481 14.8236 78.5367 14.8438 78.7695 14.8438H81.2363C81.4698 14.8438 81.6584 14.8236 81.8119 14.784C81.966 14.7443 82.085 14.6799 82.1742 14.5902C82.2633 14.4959 82.3283 14.3717 82.3628 14.2182C82.3973 14.0595 82.4174 13.8657 82.4174 13.6276V10.0741C82.4174 9.94526 82.4818 9.88028 82.6112 9.88028H83.5841C83.7129 9.88028 83.7779 9.94468 83.7779 10.0741V13.7616C83.7779 14.1883 83.733 14.5505 83.6439 14.8535C83.5548 15.1514 83.4104 15.3946 83.2121 15.5832C83.0137 15.7718 82.7555 15.9058 82.4375 15.9903C82.1201 16.0749 81.7377 16.1145 81.2858 16.1145H78.7195C78.2681 16.1145 77.8857 16.0749 77.5729 15.9903C77.2601 15.9058 77.002 15.7718 76.8036 15.5832C76.6052 15.3946 76.4609 15.1514 76.3666 14.8535C76.2723 14.5557 76.2274 14.1883 76.2274 13.7616V10.0741C76.2274 9.94526 76.297 9.88028 76.431 9.88028H77.3838H77.3843Z" fill="white"/>
<path d="M87.604 9.88028C87.7328 9.88028 87.8472 9.89005 87.9415 9.905C88.0358 9.92513 88.1204 9.95446 88.1899 10.0091C88.2595 10.0585 88.3239 10.1281 88.3837 10.2126C88.4383 10.2972 88.4981 10.411 88.5574 10.5553L90.4089 14.8288C90.4336 14.8834 90.4733 14.9082 90.5331 14.9082H90.6424C90.7022 14.9082 90.7418 14.8834 90.7666 14.8288L92.6181 10.5553C92.6779 10.4116 92.7371 10.2972 92.7917 10.2126C92.8464 10.1281 92.9108 10.0585 92.9855 10.0091C93.0551 9.95963 93.1396 9.92455 93.2288 9.905C93.3231 9.88488 93.4323 9.88028 93.5611 9.88028H94.5139C94.8215 9.88028 95.0303 9.94986 95.1395 10.089C95.2488 10.2282 95.2982 10.4662 95.2982 10.8037V15.9162C95.2982 16.045 95.2286 16.1099 95.0947 16.1099H94.1861C94.0573 16.1099 93.9924 16.0455 93.9924 15.9162V11.2655C93.9924 11.2057 93.9676 11.1764 93.9228 11.1764H93.8434C93.7836 11.1764 93.744 11.2011 93.729 11.2459L91.9321 15.2365C91.8625 15.3952 91.7884 15.5344 91.7136 15.6436C91.6394 15.7529 91.5595 15.842 91.4755 15.9167C91.391 15.9863 91.2921 16.0409 91.1829 16.0708C91.0736 16.1007 90.9448 16.1157 90.7959 16.1157H90.3692C90.2203 16.1157 90.0915 16.1007 89.9822 16.0708C89.873 16.0409 89.7735 15.9915 89.6896 15.9167C89.605 15.8472 89.5211 15.7529 89.4515 15.6436C89.3773 15.5344 89.3026 15.4004 89.233 15.2365L87.4361 11.2459C87.416 11.1965 87.3815 11.1764 87.3217 11.1764H87.2423C87.1929 11.1764 87.1727 11.2063 87.1727 11.2655V15.9162C87.1727 16.045 87.1083 16.1099 86.979 16.1099H86.0704C85.9313 16.1099 85.8669 16.0455 85.8669 15.9162V10.8037C85.8669 10.4662 85.9215 10.2282 86.0256 10.089C86.1348 9.94986 86.343 9.88028 86.6558 9.88028H87.604Z" fill="white"/>
</g>
<defs>
<clipPath id="clip0_2466_1693">
<rect width="95.2971" height="24.266" fill="white" transform="translate(0 0.866989)"/>
</clipPath>
</defs>
</svg>
