<svg width="43" height="43" viewBox="0 0 43 43" fill="none" xmlns="http://www.w3.org/2000/svg">
<g clip-path="url(#clip0_101_27)">
<path d="M21.8976 42.1162C33.5277 42.1162 42.9557 32.6881 42.9557 21.0581C42.9557 9.42802 33.5277 0 21.8976 0C10.2676 0 0.839539 9.42802 0.839539 21.0581C0.839539 32.6881 10.2676 42.1162 21.8976 42.1162Z" fill="url(#paint0_linear_101_27)"/>
<path fill-rule="evenodd" clip-rule="evenodd" d="M10.3718 20.8358C16.5106 18.1612 20.6041 16.398 22.6524 15.546C28.5004 13.1136 29.7156 12.6911 30.5076 12.6772C30.6818 12.6741 31.0713 12.7173 31.3236 12.922C31.5367 13.0948 31.5953 13.3284 31.6233 13.4923C31.6514 13.6562 31.6863 14.0295 31.6585 14.3212C31.3416 17.651 29.9704 25.7315 29.2727 29.4609C28.9776 31.039 28.3963 31.5681 27.8336 31.6199C26.6107 31.7324 25.6821 30.8117 24.4977 30.0353C22.6443 28.8204 21.5973 28.0641 19.7983 26.8786C17.7192 25.5085 19.067 24.7555 20.2518 23.5248C20.5619 23.2027 25.95 18.3019 26.0542 17.8573C26.0673 17.8017 26.0794 17.5944 25.9563 17.485C25.8331 17.3756 25.6514 17.413 25.5203 17.4427C25.3344 17.4849 22.3736 19.4419 16.6378 23.3137C15.7974 23.8908 15.0362 24.172 14.3542 24.1572C13.6023 24.141 12.156 23.7321 11.0808 23.3826C9.76202 22.9539 8.71389 22.7273 8.80516 21.9993C8.8527 21.6201 9.3749 21.2322 10.3718 20.8358Z" fill="white"/>
</g>
<defs>
<linearGradient id="paint0_linear_101_27" x1="2106.65" y1="0" x2="2106.65" y2="4180.38" gradientUnits="userSpaceOnUse">
<stop stop-color="#2AABEE"/>
<stop offset="1" stop-color="#229ED9"/>
</linearGradient>
<clipPath id="clip0_101_27">
<rect x="0.839539" width="42.1162" height="42.1162" rx="21.0581" fill="white"/>
</clipPath>
</defs>
</svg>
