<svg width="44" height="43" viewBox="0 0 44 43" fill="none" xmlns="http://www.w3.org/2000/svg">
<g clip-path="url(#clip0_154_227)">
<rect x="0.304199" width="42.9757" height="42.1162" rx="21.0581" fill="white"/>
<mask id="mask0_154_227" style="mask-type:luminance" maskUnits="userSpaceOnUse" x="0" y="0" width="44" height="43">
<path d="M43.3285 0H0.255188V42.1162H43.3285V0Z" fill="white"/>
</mask>
<g mask="url(#mask0_154_227)">
<path fill-rule="evenodd" clip-rule="evenodd" d="M21.7277 0C9.85395 0 0.255188 9.65162 0.255188 21.592C0.255188 31.1366 6.40545 39.2158 14.9375 42.0754C16.0042 42.2903 16.3949 41.6108 16.3949 41.0391C16.3949 40.5386 16.3598 38.8228 16.3598 37.035C10.3867 38.3222 9.1428 34.4611 9.1428 34.4611C8.18288 31.9587 6.76058 31.3156 6.76058 31.3156C4.80558 29.9928 6.90299 29.9928 6.90299 29.9928C9.0716 30.1359 10.2095 32.2092 10.2095 32.2092C12.1289 35.4978 15.2219 34.5686 16.4661 33.9965C16.6437 32.6023 17.2129 31.6371 17.8172 31.101C13.0532 30.6005 8.04092 28.7416 8.04092 20.4478C8.04092 18.0885 8.89359 16.1581 10.2447 14.6569C10.0315 14.1208 9.28477 11.904 10.4583 8.93696C10.4583 8.93696 12.2713 8.36488 16.3593 11.1533C18.1096 10.6807 19.9146 10.4402 21.7277 10.4382C23.5407 10.4382 25.3889 10.6887 27.0956 11.1533C31.184 8.36488 32.9971 8.93696 32.9971 8.93696C34.1706 11.904 33.4234 14.1208 33.2103 14.6569C34.5969 16.1581 35.4145 18.0885 35.4145 20.4478C35.4145 28.7416 30.4021 30.5645 25.6025 31.101C26.3849 31.7801 27.06 33.0669 27.06 35.1047C27.06 38.0002 27.0248 40.324 27.0248 41.0387C27.0248 41.6108 27.416 42.2903 28.4823 42.0758C37.0143 39.2154 43.1646 31.1366 43.1646 21.592C43.1998 9.65162 33.5658 0 21.7277 0Z" fill="#24292F"/>
</g>
</g>
<defs>
<clipPath id="clip0_154_227">
<rect x="0.304199" width="42.9757" height="42.1162" rx="21.0581" fill="white"/>
</clipPath>
</defs>
</svg>
