<svg width="58" height="65" viewBox="0 0 58 65" fill="none" xmlns="http://www.w3.org/2000/svg">
<g clip-path="url(#clip0_2569_3111)">
<path d="M2.18748 19.6687V45.0403C2.18748 46.65 3.05033 48.1523 4.46787 48.9495L26.5321 61.6276C27.9342 62.4401 29.6753 62.4401 31.0775 61.6276L53.1571 48.9495C54.5592 48.137 55.4375 46.65 55.4375 45.0403V19.6687C55.4375 18.059 54.5746 16.5567 53.1571 15.7442L31.0775 3.06604C29.6753 2.25354 27.9342 2.25354 26.5321 3.06604L4.45246 15.7442C3.06574 16.5567 2.18748 18.0437 2.18748 19.6687Z" fill="#213147"/>
<path d="M28.8126 4.0012C28.9666 4.0012 29.1207 4.04719 29.2594 4.12384L53.1418 17.8444C53.4191 17.9977 53.5886 18.289 53.5886 18.6109V46.0521C53.5886 46.374 53.4191 46.6653 53.1418 46.8186L29.2594 60.5545C29.1207 60.6312 28.9666 60.6772 28.8126 60.6772C28.6585 60.6772 28.5044 60.6312 28.3657 60.5545L4.48335 46.8339C4.20601 46.6806 4.03652 46.3894 4.03652 46.0674V18.6109C4.03652 18.289 4.20601 17.9977 4.48335 17.8444L28.3657 4.12384C28.5044 4.04719 28.6585 4.0012 28.8126 4.0012ZM28.8126 0C27.9651 0 27.1023 0.229954 26.3473 0.659201L2.4649 14.3798C0.954921 15.2536 -0.00037384 16.8633 -0.00037384 18.6109V46.0521C-0.00037384 47.7997 0.939513 49.4248 2.4649 50.2986L26.3473 64.0192C27.1023 64.4637 27.9497 64.6784 28.8126 64.6784C29.6754 64.6784 30.5228 64.4484 31.2778 64.0192L55.1602 50.2986C56.6856 49.4248 57.6255 47.8151 57.6255 46.0521V18.6109C57.6255 16.8633 56.6856 15.2383 55.1602 14.3645L31.2778 0.659201C30.5074 0.229954 29.66 0 28.8126 0Z" fill="#9FDDFF"/>
<path fill-rule="evenodd" clip-rule="evenodd" d="M27.582 17.5558C19.8355 17.5558 13.5558 23.8355 13.5558 31.582C13.5558 37.8886 17.7199 43.2287 23.4539 44.9913C24.6564 45.3612 25.3316 46.6357 24.9619 47.8382C24.5922 49.0407 23.3177 49.7158 22.1152 49.3462C14.523 47.0121 9 39.9449 9 31.582C9 21.3194 17.3194 13 27.582 13C35.9449 13 43.0121 18.523 45.3462 26.1152C45.7158 27.3177 45.0407 28.5922 43.8382 28.9619C42.6357 29.3316 41.3612 28.6564 40.9913 27.4539C39.2287 21.7199 33.8886 17.5558 27.582 17.5558Z" fill="white"/>
<path fill-rule="evenodd" clip-rule="evenodd" d="M26.8443 26.7727C24.5956 26.7727 22.7727 28.5956 22.7727 30.8443C22.7727 32.0499 23.294 33.131 24.1304 33.8796C25.029 34.6838 25.1055 36.0643 24.3012 36.9628C23.497 37.8613 22.1166 37.9377 21.218 37.1335C19.4952 35.5914 18.4057 33.3437 18.4057 30.8443C18.4057 26.1838 22.1838 22.4058 26.8443 22.4058C29.3437 22.4058 31.5914 23.4952 33.1335 25.2181C33.9377 26.1166 33.8613 27.497 32.9628 28.3012C32.0643 29.1055 30.6838 29.029 29.8796 28.1305C29.131 27.294 28.0499 26.7727 26.8443 26.7727Z" fill="white"/>
<path d="M30.26 32.1573C33.3275 30.3114 36.1785 30.9417 38 32.1869C39.8215 30.9417 42.6725 30.3114 45.7401 32.1573C48.1178 33.5884 49.3471 36.5107 48.9143 39.6749C48.4794 42.8566 46.242 46.3442 42.2581 49.2374C41.0084 50.1478 39.8387 51 38 51C36.1613 51 34.9917 50.1478 33.742 49.2374C29.758 46.3442 27.5206 42.8566 27.0856 39.6749C26.6531 36.5107 27.8821 33.5884 30.26 32.1573Z" fill="#12AAFF"/>
</g>
<defs>
<clipPath id="clip0_2569_3111">
<rect width="57.6104" height="64.6937" fill="white"/>
</clipPath>
</defs>
</svg>
