<svg width="56" height="26" viewBox="0 0 56 26" fill="none" xmlns="http://www.w3.org/2000/svg">
<path d="M20.5708 5.45924L13.4811 1.4072C12.2257 0.68692 10.6736 0.68692 9.41822 1.4072L2.32852 5.45924C1.0731 6.17952 0.297089 7.5074 0.297089 8.94392V17.052C0.297089 18.4886 1.0731 19.8165 2.32852 20.5367L9.41822 24.5928C10.6736 25.3131 12.2257 25.3131 13.4811 24.5928L20.5708 20.5367C21.8262 19.8165 22.6022 18.4886 22.6022 17.052V8.94392C22.6022 7.5074 21.8303 6.17952 20.5708 5.45924ZM17.0767 13.8048L14.9681 17.4222C14.6796 17.9212 14.1433 18.227 13.5623 18.227H9.34102C8.76003 18.227 8.22374 17.9212 7.93527 17.4222L5.82258 13.8048C5.53412 13.3058 5.53412 12.6942 5.82258 12.1952L7.93121 8.57775C8.21967 8.07879 8.75597 7.77297 9.33696 7.77297H13.5542C14.1352 7.77297 14.6715 8.07879 14.96 8.57775L17.0686 12.1952C17.3652 12.6942 17.3652 13.3058 17.0767 13.8048Z" fill="#FD1669"/>
<path d="M40.2263 13.5731L42.0103 15.9854H43.3692L41.209 13.1111C41.0939 12.9511 41.0408 12.8356 41.0408 12.7157C41.0408 12.5957 41.1161 12.4891 41.2577 12.3292L43.3294 9.98796H41.9616L40.1997 11.9827C39.9297 12.2936 39.8058 12.5113 39.8058 12.7201C39.8058 12.9956 39.9563 13.2133 40.2263 13.5731ZM49.6552 13.0045C49.6552 11.2585 50.8725 9.87689 52.683 9.87689C54.4936 9.87689 55.7507 11.183 55.7507 13.0045C55.7507 14.8259 54.4626 16.1054 52.6919 16.1054C50.7928 16.1054 49.6552 14.7815 49.6552 13.0045ZM54.5732 12.9956C54.5732 11.7739 53.8251 10.8676 52.6875 10.8676C51.5498 10.8676 50.8282 11.7561 50.8282 12.9956C50.8282 14.235 51.5985 15.1324 52.6875 15.1324C53.8384 15.1324 54.5732 14.2128 54.5732 12.9956ZM46.3617 15.9899H44.2413V14.9992H46.5698C47.2382 14.9992 47.5835 14.8215 47.5835 14.355C47.5835 13.9374 47.3134 13.8041 46.5875 13.5998L45.8925 13.4087C44.5954 13.0489 44.1572 12.6313 44.1572 11.6406C44.1572 10.6499 44.7415 9.99684 46.1581 9.99684H48.2785V11.0009H46.1404C45.5472 11.0009 45.2506 11.1341 45.2506 11.5606C45.2506 11.9649 45.5206 12.1559 46.2068 12.3336L46.9283 12.5158C48.1368 12.8268 48.7034 13.2621 48.7034 14.235C48.7079 15.3635 48.0881 15.9899 46.3617 15.9899ZM35.9103 16.1231C34.3786 16.1231 33.4534 15.3013 33.4534 13.6931V10.0013H34.5778V13.622C34.5778 14.4927 34.8567 15.1324 35.9103 15.1324C36.9638 15.1324 37.2427 14.5371 37.2427 13.6131V9.9924H38.3671V13.6797C38.3671 15.2746 37.4463 16.1231 35.9103 16.1231ZM29.4296 10.0013H28.2963V14.8481C28.2963 15.6522 28.6328 15.9899 29.31 15.9899H32.4884V15.0081H29.8545C29.5269 15.0081 29.4296 14.9059 29.4296 14.5904V10.0013Z" fill="white"/>
</svg>
